<svg xmlns="http://www.w3.org/2000/svg" viewBox="0 0 744 540">
  <rect width="100%" height="100%" fill="#0a0806"/>
  <g fill="#e8e0d0">
    <path d="M 9 17 L 9 44 L 11 44 L 12 45 L 18 45 L 19 46 L 24 46 L 25 47 L 29 47 L 34 49 L 38 49 L 39 50 L 54 53 L 70 60 L 78 67 L 83 76 L 84 82 L 85 83 L 85 92 L 86 93 L 86 452 L 85 453 L 85 462 L 84 463 L 84 467 L 78 478 L 71 484 L 61 489 L 59 489 L 58 490 L 53 490 L 52 491 L 46 491 L 45 492 L 21 493 L 20 494 L 9 494 L 9 521 L 288 521 L 288 495 L 287 494 L 270 493 L 269 492 L 264 492 L 263 491 L 258 491 L 257 490 L 248 489 L 247 488 L 244 488 L 243 487 L 235 485 L 224 479 L 216 470 L 213 464 L 212 456 L 211 455 L 211 82 L 212 81 L 213 73 L 218 63 L 223 58 L 226 57 L 230 54 L 232 54 L 238 51 L 246 50 L 247 49 L 251 49 L 252 48 L 288 44 L 288 17 Z"/>
    <path d="M 707 17 L 677 17 L 655 38 L 653 38 L 640 31 L 638 31 L 633 28 L 631 28 L 618 22 L 616 22 L 594 14 L 587 13 L 580 10 L 576 10 L 575 9 L 571 9 L 570 8 L 566 8 L 565 7 L 561 7 L 560 6 L 551 6 L 550 5 L 541 5 L 540 4 L 496 4 L 495 5 L 478 6 L 477 7 L 473 7 L 472 8 L 458 10 L 448 14 L 445 14 L 444 15 L 436 17 L 433 19 L 423 22 L 403 32 L 381 47 L 358 71 L 347 87 L 340 101 L 340 103 L 338 106 L 338 108 L 336 111 L 336 113 L 334 117 L 334 120 L 332 125 L 332 129 L 331 130 L 331 135 L 330 136 L 330 146 L 329 147 L 329 168 L 330 169 L 330 176 L 331 177 L 331 182 L 332 183 L 333 192 L 334 193 L 335 200 L 338 206 L 339 211 L 348 230 L 362 251 L 383 271 L 397 281 L 415 291 L 417 291 L 424 295 L 426 295 L 431 298 L 436 299 L 439 301 L 444 302 L 447 304 L 449 304 L 450 305 L 452 305 L 453 306 L 455 306 L 456 307 L 458 307 L 459 308 L 461 308 L 462 309 L 464 309 L 465 310 L 467 310 L 468 311 L 470 311 L 471 312 L 473 312 L 474 313 L 476 313 L 477 314 L 479 314 L 480 315 L 482 315 L 483 316 L 485 316 L 507 324 L 510 324 L 511 325 L 540 334 L 543 336 L 548 337 L 578 351 L 580 353 L 589 358 L 601 368 L 601 369 L 608 376 L 614 385 L 614 387 L 617 392 L 617 394 L 619 398 L 619 401 L 620 402 L 620 407 L 621 408 L 621 424 L 620 425 L 620 432 L 619 433 L 618 441 L 616 444 L 615 449 L 605 466 L 591 480 L 579 488 L 562 495 L 559 495 L 558 496 L 555 496 L 550 498 L 537 499 L 536 500 L 507 500 L 506 499 L 499 499 L 498 498 L 493 498 L 492 497 L 488 497 L 487 496 L 480 495 L 477 493 L 469 491 L 455 484 L 453 482 L 450 481 L 441 475 L 429 465 L 428 465 L 421 458 L 420 458 L 406 443 L 406 442 L 394 429 L 385 415 L 382 412 L 381 409 L 373 397 L 351 354 L 351 352 L 348 347 L 346 340 L 316 340 L 317 407 L 318 408 L 318 448 L 319 449 L 319 488 L 320 489 L 320 521 L 350 521 L 375 496 L 393 506 L 395 506 L 400 509 L 402 509 L 410 513 L 415 514 L 418 516 L 420 516 L 430 520 L 433 520 L 443 524 L 446 524 L 447 525 L 450 525 L 451 526 L 454 526 L 459 528 L 468 529 L 469 530 L 474 530 L 475 531 L 480 531 L 481 532 L 486 532 L 487 533 L 508 534 L 509 535 L 550 535 L 551 534 L 571 533 L 572 532 L 578 532 L 579 531 L 584 531 L 585 530 L 599 528 L 600 527 L 603 527 L 614 523 L 617 523 L 620 521 L 633 517 L 644 511 L 646 511 L 652 508 L 654 506 L 659 504 L 661 502 L 666 500 L 680 490 L 692 479 L 693 479 L 704 467 L 715 452 L 729 424 L 729 422 L 731 418 L 731 415 L 734 408 L 734 404 L 735 403 L 735 399 L 736 398 L 736 394 L 737 393 L 737 379 L 738 378 L 738 371 L 737 370 L 737 355 L 736 354 L 735 341 L 734 340 L 731 325 L 729 322 L 728 317 L 726 314 L 726 312 L 724 308 L 722 306 L 719 299 L 713 290 L 704 280 L 704 279 L 692 267 L 691 267 L 682 259 L 664 247 L 648 239 L 646 239 L 639 235 L 637 235 L 632 232 L 624 230 L 621 228 L 619 228 L 618 227 L 595 220 L 592 218 L 590 218 L 589 217 L 587 217 L 586 216 L 584 216 L 583 215 L 581 215 L 580 214 L 578 214 L 577 213 L 575 213 L 574 212 L 572 212 L 571 211 L 569 211 L 568 210 L 566 210 L 565 209 L 563 209 L 562 208 L 560 208 L 541 201 L 538 201 L 537 200 L 529 198 L 526 196 L 515 193 L 485 179 L 480 175 L 474 172 L 463 163 L 463 162 L 455 154 L 449 144 L 449 142 L 446 137 L 446 134 L 444 129 L 444 124 L 443 123 L 443 104 L 444 103 L 445 94 L 448 88 L 448 86 L 452 78 L 459 68 L 472 56 L 479 51 L 484 49 L 486 47 L 488 47 L 493 44 L 495 44 L 499 42 L 502 42 L 507 40 L 511 40 L 512 39 L 517 39 L 518 38 L 541 38 L 542 39 L 550 39 L 551 40 L 561 41 L 562 42 L 573 45 L 578 48 L 580 48 L 597 58 L 605 64 L 614 73 L 615 73 L 626 85 L 641 106 L 646 116 L 648 118 L 653 129 L 655 131 L 656 135 L 669 161 L 669 163 L 672 168 L 672 170 L 674 173 L 674 175 L 677 180 L 677 182 L 680 188 L 710 188 L 710 177 L 709 176 L 709 114 L 708 113 L 708 52 L 707 51 Z"/>
  </g>
</svg>